<?xml version="1.0" encoding="UTF-8" standalone="no"?>
<svg
   width="1512"
   height="982"
   fill="none"
   viewBox="0 0 1512 982"
   version="1.1"
   id="svg834"
   xmlns="http://www.w3.org/2000/svg"
   xmlns:svg="http://www.w3.org/2000/svg">
  <defs
     id="defs838" />
  <path
     fill="#55acee"
     stroke="#ffffff"
     stroke-linecap="round"
     stroke-width="6.86364"
     d="m 445.19237,988.14031 h 4.72806 l 0.1716,-4.72611 c 0.98052,-27.10452 5.0281,-103.27623 24.30611,-164.42637 21.13119,-67.0264 59.85683,-100.97004 108.43474,-143.15202 25.59942,-22.22937 31.80808,-48.11903 28.30664,-70.63373 -3.44261,-22.13622 -16.26291,-40.96025 -28.69982,-49.71041 -13.74984,-9.67381 -21.14002,-19.58687 -24.41888,-28.67041 -3.26219,-9.03844 -2.59838,-17.63858 0.44124,-25.08073 3.06608,-7.50882 8.57562,-13.87534 14.9794,-18.15237 6.44202,-4.30154 13.41548,-6.25277 19.33978,-5.55366 3.46908,0.40985 7.85887,1.97771 13.21741,4.54079 5.30266,2.53464 11.13577,5.83213 17.48562,9.42476 l 0.45496,0.25689 c 15.00882,8.49229 32.87978,18.60243 50.25656,21.16845 8.9345,1.31978 17.99157,0.69813 26.58975,-3.28082 8.60308,-3.98091 16.2982,-11.11616 22.85984,-22.0519 4.92614,-8.20989 6.92836,-16.33938 6.44692,-24.41201 -0.47751,-8.00398 -3.37396,-15.59615 -7.6706,-22.83729 -8.40796,-14.17244 -22.83436,-27.99876 -37.4598,-42.01627 l -0.37848,-0.36378 c -14.23127,-13.64001 -28.85082,-27.6742 -39.96502,-43.20858 -11.06517,-15.46672 -18.39554,-32.07673 -18.39554,-50.78996 0,-19.14858 5.81645,-33.23767 15.90796,-43.88808 10.21506,-10.78082 25.18858,-18.43476 44.15282,-23.84723 38.08145,-10.86907 90.19217,-12.18395 146.50639,-13.56648 45.91089,-1.12662 93.94167,-2.81213 138.46219,-9.77089 44.49008,-6.95384 85.92688,-19.23486 118.45078,-41.84663 67.5676,-46.97182 102.6604,-116.416183 108.0533,-174.2560872 l 0.5001,-5.3575622 H -11.068179 V 988.14031 Z M 596.79353,208.20613 c 0,8.58054 -6.86266,15.44124 -15.21277,15.44124 -8.34913,0 -15.21179,-6.8607 -15.21179,-15.44124 0,-8.57955 6.86266,-15.44025 15.21179,-15.44025 8.35011,0 15.21277,6.8607 15.21277,15.44025 z m 24.52967,28.77925 c 0,2.0032 -1.5904,3.53183 -3.4377,3.53183 -1.84632,0 -3.4377,-1.52863 -3.4377,-3.53183 0,-2.00418 1.59138,-3.53281 3.4377,-3.53281 1.8473,0 3.4377,1.52863 3.4377,3.53281 z m 475.8906,-122.06005 c 0,4.74277 -3.7848,8.49424 -8.3443,8.49424 -4.5594,0 -8.3442,-3.75147 -8.3442,-8.49424 0,-4.74376 3.7848,-8.49425 8.3442,-8.49425 4.5595,0 8.3443,3.75049 8.3443,8.49425 z m 47.0943,-70.457239 c 0,12.416327 -9.9326,22.387236 -22.0813,22.387236 -12.1388,0 -22.0813,-9.97189 -22.0813,-22.388217 0,-12.416326 9.9425,-22.387236 22.0813,-22.387236 12.1487,0 22.0813,9.97189 22.0813,22.388217 z M 568.33785,617.55271 c 0,5.0183 -4.00738,8.99039 -8.83448,8.99039 -4.8271,0 -8.83351,-3.97209 -8.83351,-8.99039 0,-5.01732 4.00641,-8.99039 8.83351,-8.99039 4.8271,0 8.83448,3.97307 8.83448,8.99039 z"
     id="path832" />
</svg>
