<svg xmlns="http://www.w3.org/2000/svg" width="169" height="57" fill="none" viewBox="0 0 169 57">
  <path fill="#565656" d="M9.728 56V9.536H.96V4.16h24.512v5.376H16.96V56H9.728zM30.085 56V19.008h6.849v5.248c1.365-2.261 2.73-3.776 4.096-4.544 1.365-.768 2.73-1.152 4.096-1.152h.448c.17 0 .384.021.64.064v7.552a8.977 8.977 0 00-1.792-.512 7.665 7.665 0 00-1.984-.256 5.83 5.83 0 00-2.945.768c-.853.47-1.706 1.408-2.56 2.816V56h-6.848zM57.112 56.512c-1.45 0-2.73-.405-3.84-1.216a9.13 9.13 0 01-2.624-3.2 9.435 9.435 0 01-.96-4.16c0-2.304.384-4.245 1.152-5.824a11.47 11.47 0 013.136-3.968c1.365-1.11 2.923-2.07 4.672-2.88 1.792-.81 3.67-1.6 5.632-2.368v-2.624c0-1.493-.085-2.73-.256-3.712-.17-.981-.533-1.707-1.088-2.176-.512-.512-1.301-.768-2.368-.768-.939 0-1.707.213-2.304.64-.555.427-.96 1.045-1.216 1.856-.256.768-.384 1.685-.384 2.752v1.856l-6.784-.256c.085-4.096 1.024-7.104 2.816-9.024 1.792-1.963 4.565-2.944 8.32-2.944 3.67 0 6.272 1.003 7.808 3.008 1.536 2.005 2.304 4.907 2.304 8.704v16.896c0 1.152.021 2.261.064 3.328.085 1.067.17 2.07.256 3.008.128.896.235 1.75.32 2.56h-6.272c-.128-.683-.299-1.536-.512-2.56a49.872 49.872 0 01-.384-2.88c-.427 1.45-1.259 2.816-2.496 4.096-1.195 1.237-2.859 1.856-4.992 1.856zm2.688-5.888c.683 0 1.323-.192 1.92-.576a9.569 9.569 0 001.6-1.28c.47-.512.79-.917.96-1.216V37.056a62.404 62.404 0 00-3.008 1.792 16.745 16.745 0 00-2.496 1.92 7.865 7.865 0 00-1.664 2.24c-.384.81-.576 1.75-.576 2.816 0 1.493.277 2.667.832 3.52.555.853 1.365 1.28 2.432 1.28zM82.506 56L75.21 19.008h6.912l4.544 29.76 4.608-29.76h6.656L90.89 56h-8.384zM112.571 56.512c-2.901 0-5.141-.555-6.72-1.664-1.579-1.152-2.688-2.816-3.328-4.992-.597-2.219-.896-4.928-.896-8.128V33.28c0-3.285.32-6.016.96-8.192.64-2.176 1.749-3.819 3.328-4.928 1.621-1.11 3.84-1.664 6.656-1.664 3.115 0 5.397.64 6.848 1.92 1.493 1.28 2.475 3.136 2.944 5.568.469 2.39.704 5.27.704 8.64v3.008h-14.592v7.424c0 1.493.128 2.71.384 3.648.299.939.747 1.643 1.344 2.112.64.427 1.451.64 2.432.64 1.024 0 1.792-.235 2.304-.704.555-.512.917-1.216 1.088-2.112.213-.939.32-2.027.32-3.264v-2.24h6.656v1.408c0 3.712-.789 6.635-2.368 8.768-1.579 2.133-4.267 3.2-8.064 3.2zm-4.096-22.592h7.872v-3.328c0-1.536-.085-2.816-.256-3.84-.171-1.067-.533-1.856-1.088-2.368-.512-.555-1.344-.832-2.496-.832-1.109 0-1.963.256-2.56.768-.555.512-.939 1.387-1.152 2.624-.213 1.195-.32 2.859-.32 4.992v1.984zM129.909 56V4.16h6.848V56h-6.848zM143.062 56v-4.864l13.184-20.544a277.219 277.219 0 002.688-4.288 19.839 19.839 0 002.048-4.16c.554-1.493.832-3.2.832-5.12 0-2.39-.384-4.267-1.152-5.632-.768-1.365-2.112-2.048-4.032-2.048-1.622 0-2.88.448-3.776 1.344-.896.896-1.515 2.07-1.856 3.52-.342 1.45-.512 3.008-.512 4.672v1.728h-6.848v-1.792c0-3.115.405-5.781 1.216-8 .853-2.261 2.197-4.01 4.032-5.248 1.877-1.237 4.352-1.856 7.424-1.856 4.181 0 7.296 1.195 9.344 3.584 2.048 2.347 3.072 5.61 3.072 9.792 0 2.219-.278 4.16-.832 5.824a21.87 21.87 0 01-2.048 4.672 94.691 94.691 0 01-2.816 4.48L151.126 50.24h16.384V56h-24.448zM55.309 7.992L56.9 1.047h.896l-.472 2.7L55.595 11H54.7l.609-3.008zm-1.573-6.945l1.245 6.808L55.35 11h-.882l-1.983-9.953h1.251zm6.091 6.802l1.217-6.802h1.25L60.32 11h-.882l.39-3.151zm-1.886-6.802l1.544 6.945L60.08 11h-.895L57.53 3.747l-.471-2.7h.882zM66 11.137c-.442 0-.84-.066-1.196-.199a2.337 2.337 0 01-.91-.601 2.728 2.728 0 01-.574-1.032c-.132-.415-.198-.905-.198-1.47v-.834c0-.652.075-1.203.226-1.654.155-.451.362-.814.622-1.087.26-.278.553-.479.882-.602a2.768 2.768 0 011.011-.191c.465 0 .862.075 1.19.225.328.15.594.374.8.67.205.297.355.661.45 1.094.101.433.151.932.151 1.497v.704h-4.621V6.625h3.411v-.17a4.289 4.289 0 00-.157-1.013 1.355 1.355 0 00-.41-.683c-.192-.169-.463-.253-.814-.253-.223 0-.43.039-.622.116a1.095 1.095 0 00-.485.39c-.132.182-.237.435-.315.759-.073.323-.109.733-.109 1.23v.834c0 .396.037.738.11 1.025.077.283.189.518.334.704.15.183.333.32.547.41.219.087.467.13.745.13.406 0 .74-.077 1.005-.232.265-.16.495-.362.69-.608l.636.759a2.628 2.628 0 01-1.299.957c-.305.104-.672.157-1.1.157zM71.216.5V11h-1.203V.5h1.203zM75.693 10.104c.242 0 .46-.047.657-.143.2-.1.364-.255.492-.465.127-.214.2-.492.219-.834h1.134a2.596 2.596 0 01-.376 1.299 2.46 2.46 0 01-.902.868c-.37.205-.777.308-1.224.308-.478 0-.895-.078-1.25-.233a2.276 2.276 0 01-.876-.67 3.05 3.05 0 01-.512-1.073 5.568 5.568 0 01-.171-1.442v-.834c0-.538.057-1.017.17-1.436.115-.424.285-.781.513-1.073.233-.296.525-.522.875-.677.356-.155.773-.232 1.251-.232.502 0 .935.107 1.3.321.368.21.656.515.86.916.21.397.324.877.342 1.442h-1.134c-.019-.364-.085-.667-.199-.909a1.208 1.208 0 00-.465-.547 1.297 1.297 0 00-.704-.184c-.319 0-.583.057-.793.17-.205.11-.366.27-.485.48a2.32 2.32 0 00-.253.751 6.376 6.376 0 00-.068.978v.834c0 .36.023.688.068.984.05.292.132.542.246.752.119.21.283.371.492.485.21.11.474.165.793.165zM79.344 7.657v-.704c0-.574.073-1.078.219-1.51.145-.438.348-.803.608-1.094.26-.292.563-.51.91-.657.346-.15.717-.225 1.113-.225.406 0 .782.075 1.128.225.347.146.65.365.91.657.264.291.469.656.615 1.093.146.433.219.937.219 1.511v.704c0 .574-.073 1.08-.22 1.518a3.096 3.096 0 01-.608 1.087c-.26.291-.563.51-.909.656a2.86 2.86 0 01-1.121.219 2.86 2.86 0 01-1.121-.219 2.576 2.576 0 01-.916-.656 3.1 3.1 0 01-.609-1.087c-.145-.438-.218-.944-.218-1.518zm1.21-.704v.704c0 .406.04.761.123 1.067.082.305.198.56.348.765.15.205.326.36.527.465.2.1.42.15.656.15.273 0 .513-.05.718-.15.21-.105.383-.26.52-.465.136-.205.239-.46.307-.765.068-.306.103-.661.103-1.067v-.704a4.05 4.05 0 00-.124-1.06 2.285 2.285 0 00-.348-.765 1.43 1.43 0 00-.533-.465c-.2-.105-.42-.157-.657-.157-.232 0-.448.052-.65.157-.2.1-.375.255-.525.465-.146.205-.26.46-.342.766a4.05 4.05 0 00-.123 1.06zM87.834 5.073V11h-1.203V3.604h1.135l.068 1.47zm-.246 1.948l-.56-.02a5.668 5.668 0 01.15-1.401c.105-.433.262-.81.471-1.128.215-.32.481-.565.8-.739.324-.177.7-.266 1.128-.266.283 0 .545.05.786.15.246.096.46.249.643.458.182.21.323.479.424.807.104.328.157.724.157 1.19V11h-1.21V6.133c0-.388-.052-.697-.157-.93a1.015 1.015 0 00-.43-.506 1.304 1.304 0 00-.67-.164c-.297 0-.545.066-.746.198a1.423 1.423 0 00-.472.547 2.886 2.886 0 00-.246.8c-.045.296-.068.61-.068.943zm3.985-.697l-.806.26a4.137 4.137 0 01.15-1.169 3.24 3.24 0 01.465-.998c.21-.292.47-.522.78-.69.31-.174.67-.26 1.08-.26.337 0 .635.052.895.157.26.105.478.267.656.485.182.215.319.49.41.828.091.337.137.738.137 1.203V11h-1.21V6.126c0-.415-.052-.736-.157-.964-.1-.232-.244-.394-.431-.485a1.453 1.453 0 00-.67-.144c-.21 0-.396.048-.56.144a1.24 1.24 0 00-.404.396c-.11.164-.194.353-.253.568a2.754 2.754 0 00-.082.683zM99.81 11.137c-.442 0-.84-.066-1.196-.199a2.338 2.338 0 01-.909-.601 2.726 2.726 0 01-.574-1.032c-.132-.415-.198-.905-.198-1.47v-.834c0-.652.075-1.203.225-1.654.155-.451.362-.814.622-1.087.26-.278.554-.479.882-.602a2.77 2.77 0 011.012-.191c.465 0 .861.075 1.189.225.328.15.595.374.8.67.205.297.356.661.451 1.094.101.433.151.932.151 1.497v.704h-4.621V6.625h3.411v-.17a4.303 4.303 0 00-.158-1.013c-.082-.291-.218-.52-.41-.683-.191-.169-.462-.253-.813-.253-.224 0-.43.039-.622.116a1.095 1.095 0 00-.486.39c-.132.182-.237.435-.314.759-.073.323-.11.733-.11 1.23v.834c0 .396.037.738.11 1.025.077.283.19.518.335.704.15.183.333.32.547.41.219.087.467.13.745.13.406 0 .74-.077 1.005-.232.264-.16.494-.362.69-.608l.636.759a2.618 2.618 0 01-1.299.957c-.305.104-.672.157-1.1.157zM109.641 3.604v.97h-3.453v-.97h3.453zm-2.325-1.798h1.21v7.362c0 .25.03.44.089.567a.501.501 0 00.24.253.768.768 0 00.307.062 1.556 1.556 0 00.479-.082L109.634 11a2.061 2.061 0 01-.328.089c-.137.032-.31.048-.52.048-.26 0-.501-.062-.724-.185-.224-.123-.404-.328-.54-.615-.137-.292-.206-.684-.206-1.176V1.806zM110.693 7.657v-.704c0-.574.073-1.078.219-1.51a3.09 3.09 0 01.609-1.094 2.5 2.5 0 01.909-.657c.346-.15.717-.225 1.114-.225.406 0 .782.075 1.128.225.346.146.649.365.909.657.264.291.469.656.615 1.093.146.433.219.937.219 1.511v.704c0 .574-.073 1.08-.219 1.518a3.095 3.095 0 01-.608 1.087c-.26.291-.563.51-.909.656-.347.146-.72.219-1.121.219s-.775-.073-1.121-.219a2.568 2.568 0 01-.916-.656 3.097 3.097 0 01-.609-1.087c-.146-.438-.219-.944-.219-1.518zm1.21-.704v.704c0 .406.041.761.123 1.067.082.305.199.56.349.765.15.205.326.36.526.465.201.1.42.15.657.15.273 0 .512-.05.717-.15.21-.105.383-.26.52-.465a2.27 2.27 0 00.308-.765c.068-.306.102-.661.102-1.067v-.704c0-.405-.041-.759-.123-1.06a2.274 2.274 0 00-.349-.765 1.427 1.427 0 00-.533-.465 1.393 1.393 0 00-.656-.157c-.232 0-.449.052-.649.157a1.45 1.45 0 00-.527.465 2.37 2.37 0 00-.342.766c-.082.3-.123.654-.123 1.06z"/>
</svg>
